<!-- <?xml version="1.0" standalone="no"?>
<!DOCTYPE svg PUBLIC "-//W3C//DTD SVG 20010904//EN"
 "http://www.w3.org/TR/2001/REC-SVG-20010904/DTD/svg10.dtd"> -->
<svg version="1.0" xmlns="http://www.w3.org/2000/svg"
 width="913.000000pt" height="686.000000pt" viewBox="0 0 913.000000 686.000000"
 preserveAspectRatio="xMidYMid meet">

<g transform="translate(0.000000,686.000000) scale(0.500000,-0.500000)"
fill="#000000" stroke="none">
<path d="M5911 5896 c2 -2 18 -6 34 -10 22 -5 26 -4 15 4 -14 9 -59 15 -49 6z"/>
<path d="M5980 5893 c0 -1 15 -10 33 -18 25 -12 28 -13 14 -1 -13 10 -15 15
-5 19 7 2 1 4 -14 3 -16 0 -28 -2 -28 -3z"/>
<path d="M6049 5889 c-9 -7 -4 -8 16 -4 29 6 29 6 11 -9 -11 -9 -15 -16 -9
-16 7 0 15 5 18 11 4 6 19 7 35 4 16 -3 31 -2 35 4 7 12 6 12 -51 16 -22 2
-47 -1 -55 -6z"/>
<path d="M6096 5862 c-4 -7 10 -19 33 -30 29 -14 38 -16 34 -6 -3 8 -13 14
-24 14 -10 0 -22 7 -27 16 -6 11 -12 13 -16 6z"/>
<path d="M6138 5853 c7 -3 16 -2 19 1 4 3 -2 6 -13 5 -11 0 -14 -3 -6 -6z"/>
<path d="M6215 5809 c-4 -6 -5 -12 -2 -15 2 -3 7 2 10 11 7 17 1 20 -8 4z"/>
<path d="M6268 5813 c16 -6 6 -23 -14 -23 -9 0 -12 5 -8 12 4 7 3 8 -4 4 -7
-4 -12 -11 -12 -15 0 -10 39 -24 59 -21 7 1 10 -3 7 -9 -4 -5 -1 -13 5 -17 7
-4 9 -3 5 4 -3 5 0 13 6 15 10 4 9 6 -1 6 -11 1 -11 4 0 18 13 15 12 15 -8 5
-27 -15 -45 -15 -19 -1 15 9 16 13 5 20 -8 5 -18 8 -24 8 -5 0 -4 -3 3 -6z"/>
<path d="M6327 5729 c7 -7 15 -10 18 -7 3 3 -2 9 -12 12 -14 6 -15 5 -6 -5z"/>
<path d="M6369 5737 c-6 -19 -5 -38 2 -43 5 -3 8 0 7 7 -2 6 3 14 11 17 9 3
11 0 6 -8 -6 -10 -4 -12 8 -7 19 7 35 -11 40 -44 3 -15 10 -23 21 -21 11 2 14
-2 10 -15 -5 -15 -4 -16 5 -3 6 8 11 11 11 6 0 -11 30 14 30 25 0 5 -5 9 -11
9 -5 0 -7 -4 -4 -10 3 -5 -1 -10 -10 -10 -9 0 -14 4 -11 8 2 4 1 14 -5 22 -7
13 -9 12 -9 -2 0 -9 -4 -19 -9 -22 -4 -3 -6 5 -4 17 5 25 -15 46 -59 65 -16 6
-28 11 -29 9z"/>
<path d="M6450 5715 c7 -8 17 -15 22 -15 6 0 5 7 -2 15 -7 8 -17 15 -22 15 -6
0 -5 -7 2 -15z"/>
<path d="M849 5709 c-200 -21 -391 -109 -542 -248 -163 -152 -271 -367 -296
-594 -15 -134 -15 -3500 0 -3635 36 -322 231 -599 524 -742 190 -93 190 -93
818 -97 l547 -4 0 1711 0 1710 1430 0 1429 0 -2 -1235 -2 -1235 948 0 947 0 0
1748 c0 1530 -2 1758 -16 1835 -62 359 -318 646 -669 753 l-90 28 -645 7
c-880 9 -4287 8 -4381 -2z"/>
<path d="M8327 5699 c-10 -6 -117 -9 -262 -7 -228 3 -245 2 -245 -14 0 -17 19
-18 254 -18 140 0 261 3 270 6 17 6 22 29 8 38 -4 2 -15 0 -25 -5z m13 -19
c-18 -11 -510 -13 -510 -2 0 4 108 6 240 4 141 -2 248 1 258 7 21 12 32 3 12
-9z"/>
<path d="M6406 5676 c21 -15 30 -14 19 3 -3 6 -14 11 -23 11 -13 0 -13 -2 4
-14z"/>
<path d="M7772 5676 c7 -7 19 -11 27 -8 11 4 10 7 -5 13 -29 12 -36 10 -22 -5z"/>
<path d="M6535 5650 c-3 -5 -2 -10 4 -10 5 0 13 5 16 10 3 6 2 10 -4 10 -5 0
-13 -4 -16 -10z"/>
<path d="M6520 5617 c0 -5 5 -18 11 -29 10 -18 9 -20 -7 -14 -15 5 -16 4 -7
-5 11 -11 33 -5 33 10 0 10 -29 48 -30 38z"/>
<path d="M6495 5600 c3 -5 8 -10 11 -10 2 0 4 5 4 10 0 6 -5 10 -11 10 -5 0
-7 -4 -4 -10z"/>
<path d="M6583 5550 c-6 -22 -18 -26 -28 -10 -3 6 -1 10 6 10 7 0 10 3 6 6 -3
3 -11 3 -17 -1 -8 -5 -8 -11 1 -21 16 -20 24 -18 43 11 10 15 12 25 5 25 -6 0
-13 -9 -16 -20z"/>
<path d="M6616 5544 c-9 -8 -16 -18 -17 -22 0 -4 -2 -14 -4 -23 -2 -10 3 -16
14 -15 9 0 15 -5 14 -11 -2 -7 1 -13 6 -13 5 0 8 14 7 30 0 17 -5 30 -9 30 -5
0 -6 -7 -3 -16 3 -8 2 -12 -4 -9 -15 9 -12 26 7 47 20 22 11 24 -11 2z"/>
<path d="M6683 5412 c-14 -9 -12 -29 5 -57 l11 -20 2 20 c1 11 1 26 0 34 -2 8
2 10 11 5 10 -6 10 -4 -1 9 -7 9 -14 17 -15 17 0 0 -6 -4 -13 -8z"/>
<path d="M6707 5336 c-5 -12 -3 -15 5 -10 8 5 9 1 4 -12 -5 -14 -4 -16 4 -7 8
7 9 17 3 28 -9 16 -10 16 -16 1z"/>
<path d="M6746 5332 c16 -11 25 -42 13 -42 -6 0 -9 -6 -6 -14 3 -7 0 -19 -6
-26 -9 -10 -9 -11 2 -5 10 6 13 4 9 -6 -3 -8 0 -23 8 -34 10 -14 14 -15 14 -4
0 12 2 12 11 -1 9 -12 10 -12 5 3 -3 10 -6 24 -7 30 0 7 -4 3 -9 -8 -7 -15 -9
-10 -9 23 -1 23 3 42 8 42 5 0 4 11 -2 25 -7 14 -19 25 -27 25 -9 0 -11 -3 -4
-8z"/>
<path d="M6780 5331 c0 -5 5 -13 10 -16 6 -3 10 -2 10 4 0 5 -4 13 -10 16 -5
3 -10 2 -10 -4z"/>
<path d="M6730 5281 c0 -6 4 -13 10 -16 6 -3 7 1 4 9 -7 18 -14 21 -14 7z"/>
<path d="M6791 5264 c0 -11 3 -14 6 -6 3 7 2 16 -1 19 -3 4 -6 -2 -5 -13z"/>
<path d="M6804 5088 c-4 -6 -2 -8 4 -4 6 3 14 1 18 -5 3 -6 0 -15 -7 -20 -7
-4 -10 -11 -6 -16 5 -4 12 -1 17 7 14 22 13 -6 -1 -32 -8 -14 -8 -23 0 -31 8
-8 11 -5 11 12 0 26 18 63 28 57 4 -2 7 6 7 19 0 13 -3 21 -7 18 -5 -2 -8 -11
-8 -19 0 -8 -5 -14 -11 -14 -6 0 -9 8 -7 18 6 20 -27 28 -38 10z"/>
<path d="M6857 5023 c-10 -10 -8 -43 2 -43 5 0 12 -8 14 -17 2 -10 3 -1 2 20
-2 40 -8 51 -18 40z"/>
<path d="M6850 4950 c0 -8 5 -22 10 -30 9 -13 10 -13 10 0 0 8 -5 22 -10 30
-9 13 -10 13 -10 0z"/>
<path d="M6849 4898 c-6 -12 -4 -48 2 -48 5 0 9 11 9 25 0 21 -6 33 -11 23z"/>
<path d="M6871 4864 c0 -11 3 -14 6 -6 3 7 2 16 -1 19 -3 4 -6 -2 -5 -13z"/>
<path d="M6851 4794 c0 -11 3 -14 6 -6 3 7 2 16 -1 19 -3 4 -6 -2 -5 -13z"/>
<path d="M6875 3060 c0 -949 1 -1337 2 -863 2 475 2 1251 0 1725 -1 475 -2 87
-2 -862z"/>
<path d="M7767 3814 c-3 -5 1 -15 9 -22 16 -14 18 -5 5 17 -5 7 -11 9 -14 5z"/>
<path d="M7760 3777 c0 -8 7 -17 15 -21 8 -3 15 -3 15 0 0 3 -7 12 -15 20 -13
13 -15 13 -15 1z"/>
<path d="M7768 3233 c7 -3 16 -2 19 1 4 3 -2 6 -13 5 -11 0 -14 -3 -6 -6z"/>
<path d="M7830 3230 c0 -6 -6 -8 -12 -4 -8 5 -7 0 2 -11 14 -17 13 -18 -5 -11
-11 5 -27 9 -35 11 -9 1 -10 0 -2 -2 10 -4 10 -8 -3 -17 -15 -11 -14 -12 4
-12 11 0 17 4 15 8 -3 4 0 8 5 8 6 0 11 -5 11 -12 0 -7 7 -5 18 5 16 15 66 17
466 17 345 1 446 4 443 13 -5 16 -907 23 -907 7z m740 -7 c-395 -7 -738 -7
-733 0 2 4 203 6 446 5 243 -1 372 -4 287 -5z"/>
<path d="M8732 2748 c-1 -240 -5 -445 -8 -455 -5 -16 -4 -16 5 -1 8 11 10 152
8 455 l-2 438 -3 -437z"/>
<path d="M8651 2130 c0 -8 4 -24 9 -35 l9 -20 0 20 c0 11 -4 27 -9 35 -9 13
-10 13 -9 0z"/>
<path d="M8678 2103 c4 -33 6 -35 13 -15 8 22 3 52 -10 52 -4 0 -5 -17 -3 -37z"/>
<path d="M8706 2105 c-3 -9 -6 -22 -5 -28 0 -7 5 -1 10 12 5 13 8 26 5 28 -2
2 -6 -3 -10 -12z"/>
<path d="M8641 2084 c0 -11 3 -14 6 -6 3 7 2 16 -1 19 -3 4 -6 -2 -5 -13z"/>
<path d="M8651 2036 c-8 -13 -11 -30 -8 -38 3 -7 6 -3 6 10 1 13 5 21 9 18 11
-7 7 -51 -4 -49 -12 2 -12 -53 0 -64 5 -5 7 -1 3 10 -4 9 -2 17 3 17 5 0 6 7
3 17 -4 9 -2 14 3 10 5 -3 11 6 12 21 1 15 7 29 12 30 6 2 8 8 5 12 -3 5 -12
7 -20 3 -11 -4 -13 -1 -9 11 9 24 -1 19 -15 -8z"/>
<path d="M8565 1873 c0 -21 1 -22 13 -6 6 9 12 20 12 23 0 4 -6 7 -12 7 -7 0
-13 -11 -13 -24z"/>
<path d="M8614 1892 c-13 -8 -37 -52 -32 -57 2 -2 13 12 26 31 23 36 24 38 6
26z"/>
<path d="M8620 1859 c-7 -11 -10 -23 -7 -25 2 -2 9 7 15 21 14 30 7 33 -8 4z"/>
<path d="M8565 1794 c0 -35 9 -45 18 -19 4 8 2 17 -4 20 -5 4 -7 10 -4 15 3 5
2 11 -3 14 -4 2 -7 -11 -7 -30z"/>
<path d="M8486 1732 c-6 -10 -2 -39 7 -48 9 -9 47 30 47 48 0 9 -3 9 -10 -2
-8 -13 -10 -13 -10 -1 0 11 -4 10 -16 -5 -13 -16 -15 -16 -10 -1 6 18 1 23 -8
9z m28 -27 c-4 -8 -11 -15 -16 -15 -6 0 -5 6 2 15 7 8 14 15 16 15 2 0 1 -7
-2 -15z"/>
<path d="M8480 1661 c0 -5 -11 -8 -25 -7 -13 2 -22 -1 -19 -5 3 -5 0 -9 -5 -9
-6 0 -11 5 -11 10 0 6 -4 10 -8 10 -5 0 -9 -7 -9 -15 0 -8 4 -12 9 -9 4 3 8 1
8 -5 0 -5 -5 -13 -11 -16 -6 -4 -8 -13 -5 -21 5 -14 0 -16 -44 -16 -23 0 -23
0 -2 -5 12 -2 22 -9 22 -14 0 -15 51 34 66 64 8 15 19 25 23 22 5 -2 14 2 21
10 9 10 9 15 1 15 -6 0 -11 -4 -11 -9z m-50 -52 c-7 -11 -14 -18 -17 -15 -3 3
0 12 7 21 18 21 23 19 10 -6z"/>
<path d="M8320 1550 c0 -5 6 -10 13 -10 8 0 7 -4 -3 -10 -8 -5 -10 -10 -5 -10
6 1 19 8 30 17 16 13 17 15 3 10 -10 -4 -18 -2 -18 3 0 6 -4 10 -10 10 -5 0
-10 -4 -10 -10z"/>
<path d="M8163 1484 c0 -7 7 -16 16 -19 14 -6 13 -8 -3 -21 -17 -12 -17 -14
-4 -14 9 0 20 9 23 20 7 22 25 27 25 8 1 -8 6 -5 15 6 7 10 18 16 23 12 5 -3
9 0 9 7 0 7 -8 13 -18 13 -10 0 -17 -3 -17 -6 1 -18 -3 -23 -11 -12 -11 18
-58 23 -58 6z m37 -4 c0 -5 -5 -10 -11 -10 -5 0 -7 5 -4 10 3 6 8 10 11 10 2
0 4 -4 4 -10z"/>
<path d="M7865 1410 c3 -5 16 -10 28 -9 21 0 21 1 2 9 -28 12 -37 12 -30 0z"/>
<path d="M8006 1409 c3 -5 -6 -13 -19 -18 -30 -12 -44 -31 -23 -31 9 0 16 4
16 8 0 5 14 15 32 24 30 14 30 15 10 20 -12 4 -20 2 -16 -3z"/>
<path d="M8076 1411 c8 -8 43 -8 38 0 -2 4 -13 7 -24 6 -10 -1 -17 -3 -14 -6z"/>
<path d="M7935 1400 c-3 -5 1 -10 9 -10 8 0 18 5 21 10 3 6 -1 10 -9 10 -8 0
-18 -4 -21 -10z"/>
<path d="M8040 1390 c-13 -8 -13 -10 2 -10 9 0 20 5 23 10 8 13 -5 13 -25 0z"/>
<path d="M7870 1379 c-11 -8 -7 -9 20 -6 l35 6 -30 -15 -30 -15 30 6 c36 8 39
10 30 24 -8 14 -36 14 -55 0z"/>
<path d="M8740 1139 c-98 -12 -161 -49 -207 -122 -20 -32 -27 -59 -31 -115 -9
-146 44 -213 256 -319 170 -85 196 -114 190 -210 -3 -53 -9 -68 -33 -94 -51
-53 -78 -62 -181 -57 -84 3 -100 8 -169 43 -82 41 -95 40 -95 -15 0 -55 11
-70 79 -103 64 -31 70 -32 191 -32 121 0 128 1 192 33 106 52 151 127 152 252
0 136 -51 197 -249 295 -79 39 -144 79 -165 100 -33 34 -35 41 -35 100 0 56 3
67 28 93 59 62 168 66 281 12 35 -16 69 -30 75 -30 8 0 11 18 9 52 -3 47 -7
55 -37 75 -57 39 -151 54 -251 42z"/>
<path d="M7940 1122 c-143 -48 -241 -159 -285 -327 -22 -80 -22 -289 -1 -368
37 -137 125 -246 231 -287 142 -55 363 -29 453 53 17 16 22 31 22 74 0 29 -3
53 -6 53 -4 0 -30 -14 -58 -31 -192 -119 -388 -81 -473 91 -61 123 -64 344 -7
470 51 112 148 180 260 180 69 0 154 -26 211 -64 59 -40 73 -36 73 24 0 44 -4
52 -34 76 -59 47 -121 66 -231 70 -78 3 -112 0 -155 -14z"/>
<path d="M2512 1103 c-5 -16 -84 -233 -175 -483 -91 -250 -167 -464 -169 -474
-4 -24 37 -37 87 -29 31 5 36 11 51 57 9 28 30 88 46 134 l30 82 212 0 212 0
19 -52 c80 -229 73 -215 112 -221 49 -8 93 2 93 22 0 9 -79 234 -175 500 -96
266 -175 485 -175 487 0 2 -36 4 -79 4 -77 0 -79 -1 -89 -27z m175 -366 c45
-131 83 -240 83 -243 0 -2 -79 -4 -175 -4 -96 0 -175 4 -175 9 0 9 140 425
160 476 9 21 14 26 18 15 3 -8 43 -122 89 -253z"/>
<path d="M3216 1114 c-14 -14 -16 -70 -14 -502 l3 -486 29 -7 c16 -5 41 -5 57
-2 l29 5 2 432 3 431 26 -50 c117 -221 426 -765 447 -787 22 -24 34 -28 82
-28 31 0 61 5 68 12 9 9 12 135 12 505 l0 494 -57 -3 -58 -3 0 -412 c0 -226
-4 -409 -8 -406 -4 2 -28 44 -52 91 -24 48 -61 116 -80 152 -20 36 -95 172
-167 303 -72 131 -142 246 -156 257 -32 26 -142 28 -166 4z"/>
<path d="M4481 1108 c-69 -183 -341 -955 -341 -968 0 -21 38 -31 87 -23 31 5
33 10 71 117 22 61 43 121 46 134 7 22 8 22 220 22 l213 0 47 -134 47 -134 36
-5 c50 -8 93 2 93 22 0 14 -131 384 -311 879 l-41 112 -79 0 c-73 0 -80 -2
-88 -22z m173 -362 c48 -137 85 -251 83 -253 -2 -2 -83 -2 -179 -1 l-176 3 84
240 c100 286 94 269 98 264 2 -2 43 -116 90 -253z"/>
<path d="M5174 1117 c-2 -7 -3 -230 -2 -495 3 -416 5 -484 18 -492 9 -6 115
-9 255 -7 l240 2 0 50 0 50 -192 3 -193 2 0 450 0 450 -60 0 c-40 0 -62 -4
-66 -13z"/>
<path d="M5610 1115 c0 -8 65 -146 145 -305 l145 -290 0 -187 c0 -104 4 -194
9 -202 13 -20 110 -19 122 0 5 8 9 98 9 201 l0 187 145 291 c80 160 145 298
145 306 0 11 -15 14 -63 14 l-64 0 -82 -172 c-45 -94 -96 -205 -113 -245 -17
-41 -34 -70 -39 -66 -4 4 -39 79 -78 166 -40 88 -90 194 -111 238 l-40 79 -65
0 c-51 0 -65 -3 -65 -15z"/>
<path d="M6384 1116 c-3 -8 -4 -31 -2 -52 l3 -39 152 -3 153 -3 2 -446 3 -447
30 -8 c17 -4 44 -4 60 0 l30 8 3 447 2 446 153 3 152 3 0 50 0 50 -368 3
c-308 2 -368 0 -373 -12z"/>
<path d="M7290 626 l0 -504 30 -4 c17 -3 44 -3 60 0 l30 4 0 504 0 504 -60 0
-60 0 0 -504z"/>
</g>
</svg>

